<?xml version="1.0" encoding="utf-8"?>
<!-- Generator: Adobe Illustrator 22.0.0, SVG Export Plug-In . SVG Version: 6.00 Build 0)  -->
<svg version="1.1" id="Layer_1" xmlns="http://www.w3.org/2000/svg" xmlns:xlink="http://www.w3.org/1999/xlink" x="0px" y="0px"
	 viewBox="0 0 144 134.5" style="enable-background:new 0 0 144 134.5;" xml:space="preserve">
<style type="text/css">
	.st0{fill:url(#SVGID_1_);}
	.st1{fill:#3EACF7;}
	.st2{fill:#31E87B;}
	.st3{fill:url(#SVGID_2_);}
	.st4{fill:#3D3D3D;}
	.st5{fill:url(#SVGID_3_);}
	.st6{fill:url(#SVGID_4_);}
	.st7{fill:#FFFFFF;}
	.st8{fill:url(#SVGID_5_);}
	.st9{fill:url(#SVGID_6_);}
	.st10{fill:url(#SVGID_7_);}
	.st11{fill:url(#SVGID_8_);}
	.st12{fill:url(#SVGID_9_);}
	.st13{fill:url(#SVGID_10_);}
	.st14{fill:url(#SVGID_11_);}
	.st15{fill:url(#SVGID_12_);}
</style>
<g>
	<linearGradient id="SVGID_1_" gradientUnits="userSpaceOnUse" x1="70.2954" y1="8.2028" x2="104.9446" y2="28.2075">
		<stop  offset="0" style="stop-color:#31E87B"/>
		<stop  offset="0.3143" style="stop-color:#30E57A"/>
		<stop  offset="0.5034" style="stop-color:#2FDD75"/>
		<stop  offset="0.6593" style="stop-color:#2CCF6E"/>
		<stop  offset="0.7971" style="stop-color:#28BB63"/>
		<stop  offset="0.9218" style="stop-color:#22A155"/>
		<stop  offset="1" style="stop-color:#1E8C4A"/>
	</linearGradient>
	<polygon class="st0" points="108.3,10.2 104.9,19.7 96.3,43.1 67,13.8 74.3,13.2 96.5,11.3 	"/>
	<polygon class="st1" points="68.7,28.4 62.3,46.1 58.6,56.2 55.6,64.5 55.2,65.6 46.7,89.1 43.7,97.4 42.2,97.5 32.7,88 14.8,70.1 
		18.2,60.7 26.8,37.2 30.2,27.8 31.4,24.4 34.2,16.7 40.3,0 	"/>
	<polygon class="st2" points="136.7,38.7 136.4,39.6 133.3,48.1 132,51.6 129.7,58 117.7,90.9 111.2,108.8 95.3,92.9 82.8,80.3 
		89.6,61.5 92.9,52.6 96.3,43.1 104.9,19.7 108.3,10.2 	"/>
	<linearGradient id="SVGID_2_" gradientUnits="userSpaceOnUse" x1="46.8915" y1="80.0379" x2="80.3307" y2="99.344">
		<stop  offset="0" style="stop-color:#2E7399"/>
		<stop  offset="8.446854e-02" style="stop-color:#3281B0"/>
		<stop  offset="0.2084" style="stop-color:#3690CA"/>
		<stop  offset="0.3453" style="stop-color:#3A9DDE"/>
		<stop  offset="0.5001" style="stop-color:#3CA5EC"/>
		<stop  offset="0.6878" style="stop-color:#3EAAF4"/>
		<stop  offset="1" style="stop-color:#3EACF7"/>
	</linearGradient>
	<polygon class="st3" points="83.5,93.9 77.7,94.4 54.1,96.5 43.7,97.4 46.7,89.1 55.2,65.6 79.4,89.8 	"/>
	<path class="st4" d="M0,119.4h9.8v2.8H6.3v11.8H3.4v-11.8H0V119.4z"/>
	<path class="st4" d="M13.3,119.5h3.4l3.1,9.1l-0.5-0.2l2.7-6.7l1.3,3.9l-4.2,9L13.3,119.5z M20.5,119.5h2.8l3.6,8.8l-0.5-0.1
		l2.7-8.7h3.1l-5.6,15L20.5,119.5z"/>
	<path class="st4" d="M36.7,119.4h2.9v14.5h-2.9V119.4z"/>
	<path class="st4" d="M58.2,134.5l-11-9.9l0.8,0.5l0.1,8.9h-2.9v-15.1h0.1l10.8,9.9l-0.6-0.3l-0.1-9h2.9L58.2,134.5L58.2,134.5z"/>
	<path class="st4" d="M71.8,122.9c-0.6-0.3-1.1-0.6-1.7-0.7c-0.6-0.2-1.1-0.3-1.6-0.3c-0.6,0-1.1,0.1-1.5,0.4
		c-0.4,0.2-0.5,0.6-0.5,1.1c0,0.3,0.1,0.6,0.4,0.9c0.3,0.3,0.6,0.5,1,0.7c0.4,0.2,0.9,0.4,1.3,0.6c0.4,0.2,0.8,0.3,1.3,0.6
		c0.4,0.2,0.8,0.5,1.1,0.8c0.3,0.3,0.6,0.7,0.8,1.2c0.2,0.5,0.3,1.1,0.3,1.8c0,0.7-0.2,1.4-0.6,2.1c-0.4,0.6-0.9,1.1-1.7,1.5
		c-0.7,0.4-1.6,0.6-2.7,0.6c-0.6,0-1.1-0.1-1.7-0.2c-0.6-0.1-1.1-0.3-1.7-0.5c-0.6-0.2-1.1-0.5-1.6-0.9l1.3-2.2
		c0.3,0.2,0.7,0.5,1.1,0.7c0.4,0.2,0.8,0.3,1.2,0.4c0.4,0.1,0.8,0.2,1.1,0.2c0.3,0,0.7,0,1-0.1c0.3-0.1,0.6-0.3,0.9-0.5
		c0.2-0.2,0.3-0.6,0.3-1c0-0.3-0.1-0.6-0.3-0.8c-0.2-0.2-0.4-0.5-0.8-0.7c-0.3-0.2-0.7-0.4-1.1-0.5c-0.4-0.2-0.9-0.4-1.4-0.6
		c-0.5-0.2-0.9-0.5-1.3-0.8c-0.4-0.3-0.7-0.7-1-1.2c-0.3-0.5-0.4-1.1-0.4-1.8c0-0.8,0.2-1.6,0.6-2.2c0.4-0.6,0.9-1.1,1.6-1.5
		c0.7-0.4,1.5-0.6,2.4-0.6c1.2,0,2.1,0.1,2.8,0.4s1.4,0.6,2,1L71.8,122.9z"/>
	<path class="st4" d="M81.9,119.4c1.2,0,2.2,0.2,3,0.6c0.8,0.4,1.5,1,1.9,1.7s0.7,1.6,0.7,2.6c0,0.6-0.1,1.2-0.3,1.8
		c-0.2,0.6-0.5,1.1-0.8,1.6c-0.4,0.5-0.9,0.9-1.6,1.2c-0.7,0.3-1.4,0.4-2.4,0.4h-2.1v4.6h-2.9v-14.5H81.9z M82.4,126.5
		c0.4,0,0.8-0.1,1.1-0.2c0.3-0.2,0.5-0.3,0.7-0.6c0.2-0.2,0.3-0.5,0.4-0.7c0.1-0.2,0.1-0.5,0.1-0.7c0-0.1,0-0.3-0.1-0.6
		c0-0.2-0.1-0.5-0.3-0.7c-0.1-0.2-0.4-0.5-0.7-0.6c-0.3-0.2-0.7-0.3-1.2-0.3h-2.1v4.4H82.4z"/>
	<path class="st4" d="M92,119.4h2.9v14.5H92V119.4z"/>
	<path class="st4" d="M100.6,133.9v-14.5h4.3c1.5,0,2.7,0.2,3.7,0.7c1,0.4,1.8,1,2.5,1.7c0.6,0.7,1.1,1.5,1.4,2.4
		c0.3,0.9,0.4,1.8,0.4,2.7c0,1.1-0.2,2-0.6,2.9c-0.4,0.9-0.9,1.6-1.6,2.2c-0.7,0.6-1.4,1.1-2.3,1.4c-0.9,0.3-1.8,0.5-2.8,0.5H100.6z
		 M103.4,131.1h1.7c0.7,0,1.4-0.1,2-0.3c0.6-0.2,1.1-0.5,1.5-0.8c0.4-0.4,0.8-0.8,1-1.4c0.2-0.6,0.3-1.2,0.3-1.9
		c0-0.9-0.2-1.7-0.5-2.3c-0.3-0.6-0.7-1.1-1.1-1.4c-0.5-0.3-0.9-0.6-1.4-0.7c-0.5-0.1-0.9-0.2-1.2-0.2h-2.3V131.1z"/>
	<path class="st4" d="M137.2,119.4c0.9,0,1.7,0.1,2.4,0.3c0.7,0.2,1.3,0.6,1.8,1c0.5,0.4,0.8,0.9,1.1,1.5c0.2,0.6,0.4,1.3,0.4,2
		c0,0.6-0.1,1.2-0.3,1.8c-0.2,0.6-0.5,1.1-0.9,1.6c-0.4,0.5-0.9,0.9-1.6,1.2c-0.7,0.3-1.5,0.4-2.4,0.4h-2.1v4.6h-2.9v-14.5H137.2z
		 M137.7,126.5c0.4,0,0.8-0.1,1.1-0.2c0.3-0.1,0.5-0.3,0.7-0.6c0.2-0.2,0.3-0.5,0.4-0.7c0.1-0.2,0.1-0.5,0.1-0.7
		c0-0.2,0-0.4-0.1-0.6c0-0.2-0.1-0.5-0.3-0.7c-0.1-0.2-0.4-0.5-0.7-0.6c-0.3-0.2-0.7-0.3-1.2-0.3h-2.1v4.4H137.7z M140.4,128.3
		l3.6,5.6h-3.3l-3.7-5.5L140.4,128.3z"/>
	<polygon class="st4" points="122.6,122.1 127.6,122.1 127.6,119.4 117.7,119.4 117.7,122.1 120.6,122.1 	"/>
	<polygon class="st4" points="120.6,131.1 120.6,131.1 117.7,131.1 117.7,133.9 127.9,133.9 127.9,131.1 	"/>
	<polygon class="st4" points="120.6,128 126.8,128 126.8,125.2 120.6,125.2 120.6,125.2 117.7,125.2 117.7,128 122.6,128 117.7,128 
		117.7,131.1 120.6,131.1 	"/>
</g>
</svg>
